<svg xmlns="http://www.w3.org/2000/svg" width="980" height="420" viewBox="0 0 980 420">
<rect width="100%" height="100%" fill="#ffffff"/>
<text x="490.0" y="28" font-size="20" text-anchor="middle" fill="#111827">Scheduler Decision Time by Scenario</text>
<text x="20" y="210.0" font-size="14" transform="rotate(-90 20 210.0)" fill="#374151">Decision Time (ms)</text>
<line x1="80" y1="330.0" x2="956" y2="330.0" stroke="#e5e7eb" stroke-width="1"/>
<text x="70" y="334.0" font-size="12" text-anchor="end" fill="#6b7280">0.000</text>
<line x1="80" y1="275.2" x2="956" y2="275.2" stroke="#e5e7eb" stroke-width="1"/>
<text x="70" y="279.2" font-size="12" text-anchor="end" fill="#6b7280">0.174</text>
<line x1="80" y1="220.4" x2="956" y2="220.4" stroke="#e5e7eb" stroke-width="1"/>
<text x="70" y="224.4" font-size="12" text-anchor="end" fill="#6b7280">0.349</text>
<line x1="80" y1="165.6" x2="956" y2="165.6" stroke="#e5e7eb" stroke-width="1"/>
<text x="70" y="169.6" font-size="12" text-anchor="end" fill="#6b7280">0.523</text>
<line x1="80" y1="110.8" x2="956" y2="110.8" stroke="#e5e7eb" stroke-width="1"/>
<text x="70" y="114.8" font-size="12" text-anchor="end" fill="#6b7280">0.697</text>
<line x1="80" y1="56.0" x2="956" y2="56.0" stroke="#e5e7eb" stroke-width="1"/>
<text x="70" y="60.0" font-size="12" text-anchor="end" fill="#6b7280">0.872</text>
<text x="153.0" y="390" font-size="12" text-anchor="middle" fill="#374151">A Nominal Exploration</text>
<rect x="101.9" y="315.0" width="19.5" height="15.0" fill="#2563eb" rx="2"/>
<text x="111.7" y="309.0" font-size="11" text-anchor="middle" fill="#111827">0.0477</text>
<rect x="127.5" y="208.3" width="19.5" height="121.7" fill="#dc2626" rx="2"/>
<text x="137.2" y="202.3" font-size="11" text-anchor="middle" fill="#111827">0.3871</text>
<rect x="153.0" y="186.1" width="19.5" height="143.9" fill="#16a34a" rx="2"/>
<text x="162.8" y="180.1" font-size="11" text-anchor="middle" fill="#111827">0.4577</text>
<rect x="178.6" y="91.7" width="19.5" height="238.3" fill="#9333ea" rx="2"/>
<text x="188.3" y="85.7" font-size="11" text-anchor="middle" fill="#111827">0.7579</text>
<text x="299.0" y="390" font-size="12" text-anchor="middle" fill="#374151">B Low Battery</text>
<rect x="247.9" y="320.3" width="19.5" height="9.7" fill="#2563eb" rx="2"/>
<text x="257.7" y="314.3" font-size="11" text-anchor="middle" fill="#111827">0.0309</text>
<rect x="273.4" y="263.4" width="19.5" height="66.6" fill="#dc2626" rx="2"/>
<text x="283.2" y="257.4" font-size="11" text-anchor="middle" fill="#111827">0.2120</text>
<rect x="299.0" y="244.9" width="19.5" height="85.1" fill="#16a34a" rx="2"/>
<text x="308.8" y="238.9" font-size="11" text-anchor="middle" fill="#111827">0.2707</text>
<rect x="324.6" y="141.8" width="19.5" height="188.2" fill="#9333ea" rx="2"/>
<text x="334.3" y="135.8" font-size="11" text-anchor="middle" fill="#111827">0.5987</text>
<text x="445.0" y="390" font-size="12" text-anchor="middle" fill="#374151">C Obstacle Detected</text>
<rect x="393.9" y="321.8" width="19.5" height="8.2" fill="#2563eb" rx="2"/>
<text x="403.7" y="315.8" font-size="11" text-anchor="middle" fill="#111827">0.0260</text>
<rect x="419.4" y="209.1" width="19.5" height="120.9" fill="#dc2626" rx="2"/>
<text x="429.2" y="203.1" font-size="11" text-anchor="middle" fill="#111827">0.3845</text>
<rect x="445.0" y="189.0" width="19.5" height="141.0" fill="#16a34a" rx="2"/>
<text x="454.8" y="183.0" font-size="11" text-anchor="middle" fill="#111827">0.4485</text>
<rect x="470.5" y="144.8" width="19.5" height="185.2" fill="#9333ea" rx="2"/>
<text x="480.3" y="138.8" font-size="11" text-anchor="middle" fill="#111827">0.5891</text>
<text x="591.0" y="390" font-size="12" text-anchor="middle" fill="#374151">D Emergency Event</text>
<rect x="539.9" y="319.6" width="19.5" height="10.4" fill="#2563eb" rx="2"/>
<text x="549.7" y="313.6" font-size="11" text-anchor="middle" fill="#111827">0.0331</text>
<rect x="565.4" y="255.2" width="19.5" height="74.8" fill="#dc2626" rx="2"/>
<text x="575.2" y="249.2" font-size="11" text-anchor="middle" fill="#111827">0.2378</text>
<rect x="591.0" y="202.9" width="19.5" height="127.1" fill="#16a34a" rx="2"/>
<text x="600.8" y="196.9" font-size="11" text-anchor="middle" fill="#111827">0.4043</text>
<rect x="616.5" y="199.7" width="19.5" height="130.3" fill="#9333ea" rx="2"/>
<text x="626.3" y="193.7" font-size="11" text-anchor="middle" fill="#111827">0.4144</text>
<text x="737.0" y="390" font-size="12" text-anchor="middle" fill="#374151">E Budget Exhaustion</text>
<rect x="685.9" y="318.6" width="19.5" height="11.4" fill="#2563eb" rx="2"/>
<text x="695.7" y="312.6" font-size="11" text-anchor="middle" fill="#111827">0.0362</text>
<rect x="711.4" y="265.3" width="19.5" height="64.7" fill="#dc2626" rx="2"/>
<text x="721.2" y="259.3" font-size="11" text-anchor="middle" fill="#111827">0.2059</text>
<rect x="737.0" y="210.5" width="19.5" height="119.5" fill="#16a34a" rx="2"/>
<text x="746.8" y="204.5" font-size="11" text-anchor="middle" fill="#111827">0.3802</text>
<rect x="762.5" y="187.0" width="19.5" height="143.0" fill="#9333ea" rx="2"/>
<text x="772.3" y="181.0" font-size="11" text-anchor="middle" fill="#111827">0.4550</text>
<text x="883.0" y="390" font-size="12" text-anchor="middle" fill="#374151">G Sensor Failure</text>
<rect x="831.9" y="322.9" width="19.5" height="7.1" fill="#2563eb" rx="2"/>
<text x="841.7" y="316.9" font-size="11" text-anchor="middle" fill="#111827">0.0227</text>
<rect x="857.4" y="260.4" width="19.5" height="69.6" fill="#dc2626" rx="2"/>
<text x="867.2" y="254.4" font-size="11" text-anchor="middle" fill="#111827">0.2214</text>
<rect x="883.0" y="236.2" width="19.5" height="93.8" fill="#16a34a" rx="2"/>
<text x="892.8" y="230.2" font-size="11" text-anchor="middle" fill="#111827">0.2983</text>
<rect x="908.5" y="172.7" width="19.5" height="157.3" fill="#9333ea" rx="2"/>
<text x="918.3" y="166.7" font-size="11" text-anchor="middle" fill="#111827">0.5004</text>
<rect x="80" y="364" width="14" height="14" fill="#2563eb" rx="2"/>
<text x="102" y="376" font-size="12" fill="#374151">Priority</text>
<rect x="260" y="364" width="14" height="14" fill="#dc2626" rx="2"/>
<text x="282" y="376" font-size="12" fill="#374151">Criticality</text>
<rect x="440" y="364" width="14" height="14" fill="#16a34a" rx="2"/>
<text x="462" y="376" font-size="12" fill="#374151">Risk Aware Knapsack</text>
<rect x="620" y="364" width="14" height="14" fill="#9333ea" rx="2"/>
<text x="642" y="376" font-size="12" fill="#374151">Lexicographic</text>
</svg>