<svg xmlns="http://www.w3.org/2000/svg" width="980" height="420" viewBox="0 0 980 420">
<rect width="100%" height="100%" fill="#ffffff"/>
<text x="490.0" y="28" font-size="20" text-anchor="middle" fill="#111827">Phase 2A.6 Focused Component Averages</text>
<text x="20" y="210.0" font-size="14" transform="rotate(-90 20 210.0)" fill="#374151">Component Score (%)</text>
<line x1="80" y1="330.0" x2="956" y2="330.0" stroke="#e5e7eb" stroke-width="1"/>
<text x="70" y="334.0" font-size="12" text-anchor="end" fill="#6b7280">0</text>
<line x1="80" y1="275.2" x2="956" y2="275.2" stroke="#e5e7eb" stroke-width="1"/>
<text x="70" y="279.2" font-size="12" text-anchor="end" fill="#6b7280">20</text>
<line x1="80" y1="220.4" x2="956" y2="220.4" stroke="#e5e7eb" stroke-width="1"/>
<text x="70" y="224.4" font-size="12" text-anchor="end" fill="#6b7280">40</text>
<line x1="80" y1="165.6" x2="956" y2="165.6" stroke="#e5e7eb" stroke-width="1"/>
<text x="70" y="169.6" font-size="12" text-anchor="end" fill="#6b7280">60</text>
<line x1="80" y1="110.8" x2="956" y2="110.8" stroke="#e5e7eb" stroke-width="1"/>
<text x="70" y="114.8" font-size="12" text-anchor="end" fill="#6b7280">80</text>
<line x1="80" y1="56.0" x2="956" y2="56.0" stroke="#e5e7eb" stroke-width="1"/>
<text x="70" y="60.0" font-size="12" text-anchor="end" fill="#6b7280">100</text>
<text x="167.6" y="390" font-size="12" text-anchor="middle" fill="#374151">Completion</text>
<rect x="106.3" y="56.0" width="55.3" height="274.0" fill="#2563eb" rx="2"/>
<text x="133.9" y="68.0" font-size="11" text-anchor="middle" fill="#111827">100.0</text>
<rect x="167.6" y="248.3" width="55.3" height="81.7" fill="#dc2626" rx="2"/>
<text x="195.3" y="242.3" font-size="11" text-anchor="middle" fill="#111827">29.8</text>
<text x="342.8" y="390" font-size="12" text-anchor="middle" fill="#374151">Safety</text>
<rect x="281.5" y="56.0" width="55.3" height="274.0" fill="#2563eb" rx="2"/>
<text x="309.1" y="68.0" font-size="11" text-anchor="middle" fill="#111827">100.0</text>
<rect x="342.8" y="56.0" width="55.3" height="274.0" fill="#dc2626" rx="2"/>
<text x="370.5" y="68.0" font-size="11" text-anchor="middle" fill="#111827">100.0</text>
<text x="518.0" y="390" font-size="12" text-anchor="middle" fill="#374151">Energy</text>
<rect x="456.7" y="298.9" width="55.3" height="31.1" fill="#2563eb" rx="2"/>
<text x="484.3" y="292.9" font-size="11" text-anchor="middle" fill="#111827">11.3</text>
<rect x="518.0" y="198.5" width="55.3" height="131.5" fill="#dc2626" rx="2"/>
<text x="545.7" y="192.5" font-size="11" text-anchor="middle" fill="#111827">48.0</text>
<text x="693.2" y="390" font-size="12" text-anchor="middle" fill="#374151">Time</text>
<rect x="631.9" y="330.0" width="55.3" height="0.0" fill="#2563eb" rx="2"/>
<text x="659.5" y="324.0" font-size="11" text-anchor="middle" fill="#111827">0.0</text>
<rect x="693.2" y="246.9" width="55.3" height="83.1" fill="#dc2626" rx="2"/>
<text x="720.9" y="240.9" font-size="11" text-anchor="middle" fill="#111827">30.3</text>
<text x="868.4" y="390" font-size="12" text-anchor="middle" fill="#374151">Preservation</text>
<rect x="807.1" y="319.6" width="55.3" height="10.4" fill="#2563eb" rx="2"/>
<text x="834.7" y="313.6" font-size="11" text-anchor="middle" fill="#111827">3.8</text>
<rect x="868.4" y="238.8" width="55.3" height="91.2" fill="#dc2626" rx="2"/>
<text x="896.1" y="232.8" font-size="11" text-anchor="middle" fill="#111827">33.3</text>
<rect x="80" y="364" width="14" height="14" fill="#2563eb" rx="2"/>
<text x="102" y="376" font-size="12" fill="#374151">Priority</text>
<rect x="260" y="364" width="14" height="14" fill="#dc2626" rx="2"/>
<text x="282" y="376" font-size="12" fill="#374151">Criticality</text>
</svg>