<svg xmlns="http://www.w3.org/2000/svg" width="980" height="420" viewBox="0 0 980 420">
<rect width="100%" height="100%" fill="#ffffff"/>
<text x="490.0" y="28" font-size="20" text-anchor="middle" fill="#111827">Scheduler Decision Time by Scenario</text>
<text x="20" y="210.0" font-size="14" transform="rotate(-90 20 210.0)" fill="#374151">Decision Time (ms)</text>
<line x1="80" y1="330.0" x2="956" y2="330.0" stroke="#e5e7eb" stroke-width="1"/>
<text x="70" y="334.0" font-size="12" text-anchor="end" fill="#6b7280">0.000</text>
<line x1="80" y1="275.2" x2="956" y2="275.2" stroke="#e5e7eb" stroke-width="1"/>
<text x="70" y="279.2" font-size="12" text-anchor="end" fill="#6b7280">0.057</text>
<line x1="80" y1="220.4" x2="956" y2="220.4" stroke="#e5e7eb" stroke-width="1"/>
<text x="70" y="224.4" font-size="12" text-anchor="end" fill="#6b7280">0.113</text>
<line x1="80" y1="165.6" x2="956" y2="165.6" stroke="#e5e7eb" stroke-width="1"/>
<text x="70" y="169.6" font-size="12" text-anchor="end" fill="#6b7280">0.170</text>
<line x1="80" y1="110.8" x2="956" y2="110.8" stroke="#e5e7eb" stroke-width="1"/>
<text x="70" y="114.8" font-size="12" text-anchor="end" fill="#6b7280">0.227</text>
<line x1="80" y1="56.0" x2="956" y2="56.0" stroke="#e5e7eb" stroke-width="1"/>
<text x="70" y="60.0" font-size="12" text-anchor="end" fill="#6b7280">0.283</text>
<text x="153.0" y="390" font-size="12" text-anchor="middle" fill="#374151">A Nominal Exploration</text>
<rect x="101.9" y="288.6" width="45.1" height="41.4" fill="#2563eb" rx="2"/>
<text x="124.5" y="282.6" font-size="11" text-anchor="middle" fill="#111827">0.0428</text>
<rect x="153.0" y="91.7" width="45.1" height="238.3" fill="#dc2626" rx="2"/>
<text x="175.6" y="85.7" font-size="11" text-anchor="middle" fill="#111827">0.2462</text>
<text x="299.0" y="390" font-size="12" text-anchor="middle" fill="#374151">B Low Battery</text>
<rect x="247.9" y="311.3" width="45.1" height="18.7" fill="#2563eb" rx="2"/>
<text x="270.4" y="305.3" font-size="11" text-anchor="middle" fill="#111827">0.0193</text>
<rect x="299.0" y="145.4" width="45.1" height="184.6" fill="#dc2626" rx="2"/>
<text x="321.6" y="139.4" font-size="11" text-anchor="middle" fill="#111827">0.1908</text>
<text x="445.0" y="390" font-size="12" text-anchor="middle" fill="#374151">C Obstacle Detected</text>
<rect x="393.9" y="309.4" width="45.1" height="20.6" fill="#2563eb" rx="2"/>
<text x="416.4" y="303.4" font-size="11" text-anchor="middle" fill="#111827">0.0213</text>
<rect x="445.0" y="137.3" width="45.1" height="192.7" fill="#dc2626" rx="2"/>
<text x="467.6" y="131.3" font-size="11" text-anchor="middle" fill="#111827">0.1991</text>
<text x="591.0" y="390" font-size="12" text-anchor="middle" fill="#374151">D Emergency Event</text>
<rect x="539.9" y="316.5" width="45.1" height="13.5" fill="#2563eb" rx="2"/>
<text x="562.4" y="310.5" font-size="11" text-anchor="middle" fill="#111827">0.0140</text>
<rect x="591.0" y="137.3" width="45.1" height="192.7" fill="#dc2626" rx="2"/>
<text x="613.5" y="131.3" font-size="11" text-anchor="middle" fill="#111827">0.1991</text>
<text x="737.0" y="390" font-size="12" text-anchor="middle" fill="#374151">E Budget Exhaustion</text>
<rect x="685.9" y="315.2" width="45.1" height="14.8" fill="#2563eb" rx="2"/>
<text x="708.4" y="309.2" font-size="11" text-anchor="middle" fill="#111827">0.0153</text>
<rect x="737.0" y="168.9" width="45.1" height="161.1" fill="#dc2626" rx="2"/>
<text x="759.5" y="162.9" font-size="11" text-anchor="middle" fill="#111827">0.1665</text>
<text x="883.0" y="390" font-size="12" text-anchor="middle" fill="#374151">G Sensor Failure</text>
<rect x="831.9" y="316.2" width="45.1" height="13.8" fill="#2563eb" rx="2"/>
<text x="854.4" y="310.2" font-size="11" text-anchor="middle" fill="#111827">0.0143</text>
<rect x="883.0" y="151.0" width="45.1" height="179.0" fill="#dc2626" rx="2"/>
<text x="905.5" y="145.0" font-size="11" text-anchor="middle" fill="#111827">0.1850</text>
<rect x="80" y="364" width="14" height="14" fill="#2563eb" rx="2"/>
<text x="102" y="376" font-size="12" fill="#374151">Priority</text>
<rect x="260" y="364" width="14" height="14" fill="#dc2626" rx="2"/>
<text x="282" y="376" font-size="12" fill="#374151">Criticality</text>
</svg>