<svg xmlns="http://www.w3.org/2000/svg" width="980" height="420" viewBox="0 0 980 420">
<rect width="100%" height="100%" fill="#ffffff"/>
<text x="490.0" y="28" font-size="20" text-anchor="middle" fill="#111827">Scheduler Decision Time by Scenario</text>
<text x="20" y="210.0" font-size="14" transform="rotate(-90 20 210.0)" fill="#374151">Decision Time (ms)</text>
<line x1="80" y1="330.0" x2="956" y2="330.0" stroke="#e5e7eb" stroke-width="1"/>
<text x="70" y="334.0" font-size="12" text-anchor="end" fill="#6b7280">0.000</text>
<line x1="80" y1="275.2" x2="956" y2="275.2" stroke="#e5e7eb" stroke-width="1"/>
<text x="70" y="279.2" font-size="12" text-anchor="end" fill="#6b7280">0.078</text>
<line x1="80" y1="220.4" x2="956" y2="220.4" stroke="#e5e7eb" stroke-width="1"/>
<text x="70" y="224.4" font-size="12" text-anchor="end" fill="#6b7280">0.156</text>
<line x1="80" y1="165.6" x2="956" y2="165.6" stroke="#e5e7eb" stroke-width="1"/>
<text x="70" y="169.6" font-size="12" text-anchor="end" fill="#6b7280">0.234</text>
<line x1="80" y1="110.8" x2="956" y2="110.8" stroke="#e5e7eb" stroke-width="1"/>
<text x="70" y="114.8" font-size="12" text-anchor="end" fill="#6b7280">0.312</text>
<line x1="80" y1="56.0" x2="956" y2="56.0" stroke="#e5e7eb" stroke-width="1"/>
<text x="70" y="60.0" font-size="12" text-anchor="end" fill="#6b7280">0.390</text>
<text x="153.0" y="390" font-size="12" text-anchor="middle" fill="#374151">A Nominal Exploration</text>
<rect x="101.9" y="309.5" width="19.5" height="20.5" fill="#2563eb" rx="2"/>
<text x="111.7" y="303.5" font-size="11" text-anchor="middle" fill="#111827">0.0292</text>
<rect x="127.5" y="154.2" width="19.5" height="175.8" fill="#dc2626" rx="2"/>
<text x="137.2" y="148.2" font-size="11" text-anchor="middle" fill="#111827">0.2502</text>
<rect x="153.0" y="122.0" width="19.5" height="208.0" fill="#16a34a" rx="2"/>
<text x="162.8" y="116.0" font-size="11" text-anchor="middle" fill="#111827">0.2960</text>
<rect x="178.6" y="91.7" width="19.5" height="238.3" fill="#9333ea" rx="2"/>
<text x="188.3" y="85.7" font-size="11" text-anchor="middle" fill="#111827">0.3390</text>
<text x="299.0" y="390" font-size="12" text-anchor="middle" fill="#374151">B Low Battery</text>
<rect x="247.9" y="320.7" width="19.5" height="9.3" fill="#2563eb" rx="2"/>
<text x="257.7" y="314.7" font-size="11" text-anchor="middle" fill="#111827">0.0132</text>
<rect x="273.4" y="240.5" width="19.5" height="89.5" fill="#dc2626" rx="2"/>
<text x="283.2" y="234.5" font-size="11" text-anchor="middle" fill="#111827">0.1274</text>
<rect x="299.0" y="211.6" width="19.5" height="118.4" fill="#16a34a" rx="2"/>
<text x="308.8" y="205.6" font-size="11" text-anchor="middle" fill="#111827">0.1684</text>
<rect x="324.6" y="177.6" width="19.5" height="152.4" fill="#9333ea" rx="2"/>
<text x="334.3" y="171.6" font-size="11" text-anchor="middle" fill="#111827">0.2168</text>
<text x="445.0" y="390" font-size="12" text-anchor="middle" fill="#374151">C Obstacle Detected</text>
<rect x="393.9" y="321.5" width="19.5" height="8.5" fill="#2563eb" rx="2"/>
<text x="403.7" y="315.5" font-size="11" text-anchor="middle" fill="#111827">0.0121</text>
<rect x="419.4" y="244.3" width="19.5" height="85.7" fill="#dc2626" rx="2"/>
<text x="429.2" y="238.3" font-size="11" text-anchor="middle" fill="#111827">0.1219</text>
<rect x="445.0" y="185.3" width="19.5" height="144.7" fill="#16a34a" rx="2"/>
<text x="454.8" y="179.3" font-size="11" text-anchor="middle" fill="#111827">0.2059</text>
<rect x="470.5" y="157.0" width="19.5" height="173.0" fill="#9333ea" rx="2"/>
<text x="480.3" y="151.0" font-size="11" text-anchor="middle" fill="#111827">0.2462</text>
<text x="591.0" y="390" font-size="12" text-anchor="middle" fill="#374151">D Emergency Event</text>
<rect x="539.9" y="322.8" width="19.5" height="7.2" fill="#2563eb" rx="2"/>
<text x="549.7" y="316.8" font-size="11" text-anchor="middle" fill="#111827">0.0102</text>
<rect x="565.4" y="249.5" width="19.5" height="80.5" fill="#dc2626" rx="2"/>
<text x="575.2" y="243.5" font-size="11" text-anchor="middle" fill="#111827">0.1146</text>
<rect x="591.0" y="199.6" width="19.5" height="130.4" fill="#16a34a" rx="2"/>
<text x="600.8" y="193.6" font-size="11" text-anchor="middle" fill="#111827">0.1856</text>
<rect x="616.5" y="168.8" width="19.5" height="161.2" fill="#9333ea" rx="2"/>
<text x="626.3" y="162.8" font-size="11" text-anchor="middle" fill="#111827">0.2293</text>
<text x="737.0" y="390" font-size="12" text-anchor="middle" fill="#374151">E Budget Exhaustion</text>
<rect x="685.9" y="320.8" width="19.5" height="9.2" fill="#2563eb" rx="2"/>
<text x="695.7" y="314.8" font-size="11" text-anchor="middle" fill="#111827">0.0131</text>
<rect x="711.4" y="252.8" width="19.5" height="77.2" fill="#dc2626" rx="2"/>
<text x="721.2" y="246.8" font-size="11" text-anchor="middle" fill="#111827">0.1098</text>
<rect x="737.0" y="234.0" width="19.5" height="96.0" fill="#16a34a" rx="2"/>
<text x="746.8" y="228.0" font-size="11" text-anchor="middle" fill="#111827">0.1366</text>
<rect x="762.5" y="194.5" width="19.5" height="135.5" fill="#9333ea" rx="2"/>
<text x="772.3" y="188.5" font-size="11" text-anchor="middle" fill="#111827">0.1928</text>
<text x="883.0" y="390" font-size="12" text-anchor="middle" fill="#374151">G Sensor Failure</text>
<rect x="831.9" y="322.8" width="19.5" height="7.2" fill="#2563eb" rx="2"/>
<text x="841.7" y="316.8" font-size="11" text-anchor="middle" fill="#111827">0.0102</text>
<rect x="857.4" y="251.9" width="19.5" height="78.1" fill="#dc2626" rx="2"/>
<text x="867.2" y="245.9" font-size="11" text-anchor="middle" fill="#111827">0.1111</text>
<rect x="883.0" y="216.7" width="19.5" height="113.3" fill="#16a34a" rx="2"/>
<text x="892.8" y="210.7" font-size="11" text-anchor="middle" fill="#111827">0.1612</text>
<rect x="908.5" y="184.2" width="19.5" height="145.8" fill="#9333ea" rx="2"/>
<text x="918.3" y="178.2" font-size="11" text-anchor="middle" fill="#111827">0.2075</text>
<rect x="80" y="364" width="14" height="14" fill="#2563eb" rx="2"/>
<text x="102" y="376" font-size="12" fill="#374151">Priority</text>
<rect x="260" y="364" width="14" height="14" fill="#dc2626" rx="2"/>
<text x="282" y="376" font-size="12" fill="#374151">Criticality</text>
<rect x="440" y="364" width="14" height="14" fill="#16a34a" rx="2"/>
<text x="462" y="376" font-size="12" fill="#374151">Risk Aware Knapsack</text>
<rect x="620" y="364" width="14" height="14" fill="#9333ea" rx="2"/>
<text x="642" y="376" font-size="12" fill="#374151">Lexicographic</text>
</svg>