<svg xmlns="http://www.w3.org/2000/svg" width="980" height="420" viewBox="0 0 980 420">
<rect width="100%" height="100%" fill="#ffffff"/>
<text x="490.0" y="28" font-size="20" text-anchor="middle" fill="#111827">Ablation Impact vs Full System</text>
<text x="20" y="210.0" font-size="14" transform="rotate(-90 20 210.0)" fill="#374151">Delta vs Full</text>
<line x1="80" y1="330.0" x2="956" y2="330.0" stroke="#e5e7eb" stroke-width="1"/>
<text x="70" y="334.0" font-size="12" text-anchor="end" fill="#6b7280">0.000</text>
<line x1="80" y1="275.2" x2="956" y2="275.2" stroke="#e5e7eb" stroke-width="1"/>
<text x="70" y="279.2" font-size="12" text-anchor="end" fill="#6b7280">0.017</text>
<line x1="80" y1="220.4" x2="956" y2="220.4" stroke="#e5e7eb" stroke-width="1"/>
<text x="70" y="224.4" font-size="12" text-anchor="end" fill="#6b7280">0.034</text>
<line x1="80" y1="165.6" x2="956" y2="165.6" stroke="#e5e7eb" stroke-width="1"/>
<text x="70" y="169.6" font-size="12" text-anchor="end" fill="#6b7280">0.050</text>
<line x1="80" y1="110.8" x2="956" y2="110.8" stroke="#e5e7eb" stroke-width="1"/>
<text x="70" y="114.8" font-size="12" text-anchor="end" fill="#6b7280">0.067</text>
<line x1="80" y1="56.0" x2="956" y2="56.0" stroke="#e5e7eb" stroke-width="1"/>
<text x="70" y="60.0" font-size="12" text-anchor="end" fill="#6b7280">0.084</text>
<text x="134.8" y="390" font-size="12" text-anchor="middle" fill="#374151">No Dependency Graph</text>
<rect x="96.4" y="330.0" width="13.2" height="0.0" fill="#2563eb" rx="2"/>
<text x="103.0" y="324.0" font-size="11" text-anchor="middle" fill="#111827">0.0000</text>
<rect x="115.6" y="330.0" width="13.2" height="0.0" fill="#dc2626" rx="2"/>
<text x="122.2" y="324.0" font-size="11" text-anchor="middle" fill="#111827">0.0000</text>
<rect x="134.8" y="330.0" width="13.2" height="0.0" fill="#16a34a" rx="2"/>
<text x="141.3" y="324.0" font-size="11" text-anchor="middle" fill="#111827">0.0000</text>
<rect x="153.9" y="222.6" width="13.2" height="107.4" fill="#9333ea" rx="2"/>
<text x="160.5" y="216.6" font-size="11" text-anchor="middle" fill="#111827">0.0328</text>
<text x="244.2" y="390" font-size="12" text-anchor="middle" fill="#374151">No Lexicographic Ordering</text>
<rect x="205.9" y="166.4" width="13.2" height="163.6" fill="#2563eb" rx="2"/>
<text x="212.5" y="160.4" font-size="11" text-anchor="middle" fill="#111827">0.0500</text>
<rect x="225.1" y="1053.2" width="13.2" height="-723.2" fill="#dc2626" rx="2"/>
<text x="231.7" y="1047.2" font-size="11" text-anchor="middle" fill="#111827">-0.2211</text>
<rect x="244.2" y="290.7" width="13.2" height="39.3" fill="#16a34a" rx="2"/>
<text x="250.8" y="284.7" font-size="11" text-anchor="middle" fill="#111827">0.0120</text>
<rect x="263.4" y="683.8" width="13.2" height="-353.8" fill="#9333ea" rx="2"/>
<text x="270.0" y="677.8" font-size="11" text-anchor="middle" fill="#111827">-0.1081</text>
<text x="353.8" y="390" font-size="12" text-anchor="middle" fill="#374151">No Mandatory Modules</text>
<rect x="315.4" y="493.6" width="13.2" height="-163.6" fill="#2563eb" rx="2"/>
<text x="322.0" y="487.6" font-size="11" text-anchor="middle" fill="#111827">-0.0500</text>
<rect x="334.6" y="605.5" width="13.2" height="-275.5" fill="#dc2626" rx="2"/>
<text x="341.2" y="599.5" font-size="11" text-anchor="middle" fill="#111827">-0.0842</text>
<rect x="353.8" y="297.3" width="13.2" height="32.7" fill="#16a34a" rx="2"/>
<text x="360.3" y="291.3" font-size="11" text-anchor="middle" fill="#111827">0.0100</text>
<rect x="372.9" y="390.8" width="13.2" height="-60.8" fill="#9333ea" rx="2"/>
<text x="379.5" y="384.8" font-size="11" text-anchor="middle" fill="#111827">-0.0186</text>
<text x="463.2" y="390" font-size="12" text-anchor="middle" fill="#374151">No Safety Critical Distinction</text>
<rect x="424.9" y="929.8" width="13.2" height="-599.8" fill="#2563eb" rx="2"/>
<text x="431.5" y="923.8" font-size="11" text-anchor="middle" fill="#111827">-0.1833</text>
<rect x="444.1" y="476.4" width="13.2" height="-146.4" fill="#dc2626" rx="2"/>
<text x="450.7" y="470.4" font-size="11" text-anchor="middle" fill="#111827">-0.0447</text>
<rect x="463.2" y="195.9" width="13.2" height="134.1" fill="#16a34a" rx="2"/>
<text x="469.8" y="189.9" font-size="11" text-anchor="middle" fill="#111827">0.0410</text>
<rect x="482.4" y="151.1" width="13.2" height="178.9" fill="#9333ea" rx="2"/>
<text x="489.0" y="145.1" font-size="11" text-anchor="middle" fill="#111827">0.0547</text>
<text x="572.8" y="390" font-size="12" text-anchor="middle" fill="#374151">No Module Classes</text>
<rect x="534.4" y="929.8" width="13.2" height="-599.8" fill="#2563eb" rx="2"/>
<text x="541.0" y="923.8" font-size="11" text-anchor="middle" fill="#111827">-0.1833</text>
<rect x="553.6" y="476.4" width="13.2" height="-146.4" fill="#dc2626" rx="2"/>
<text x="560.2" y="470.4" font-size="11" text-anchor="middle" fill="#111827">-0.0447</text>
<rect x="572.8" y="195.9" width="13.2" height="134.1" fill="#16a34a" rx="2"/>
<text x="579.3" y="189.9" font-size="11" text-anchor="middle" fill="#111827">0.0410</text>
<rect x="591.9" y="91.7" width="13.2" height="238.3" fill="#9333ea" rx="2"/>
<text x="598.5" y="85.7" font-size="11" text-anchor="middle" fill="#111827">0.0728</text>
<text x="682.2" y="390" font-size="12" text-anchor="middle" fill="#374151">No Redundancy Handling</text>
<rect x="643.9" y="330.0" width="13.2" height="0.0" fill="#2563eb" rx="2"/>
<text x="650.5" y="324.0" font-size="11" text-anchor="middle" fill="#111827">0.0000</text>
<rect x="663.1" y="330.0" width="13.2" height="0.0" fill="#dc2626" rx="2"/>
<text x="669.7" y="324.0" font-size="11" text-anchor="middle" fill="#111827">0.0000</text>
<rect x="682.2" y="330.0" width="13.2" height="0.0" fill="#16a34a" rx="2"/>
<text x="688.8" y="324.0" font-size="11" text-anchor="middle" fill="#111827">0.0000</text>
<rect x="701.4" y="459.0" width="13.2" height="-129.0" fill="#9333ea" rx="2"/>
<text x="708.0" y="453.0" font-size="11" text-anchor="middle" fill="#111827">-0.0394</text>
<text x="791.8" y="390" font-size="12" text-anchor="middle" fill="#374151">No Mutual Exclusion</text>
<rect x="753.4" y="330.0" width="13.2" height="0.0" fill="#2563eb" rx="2"/>
<text x="760.0" y="324.0" font-size="11" text-anchor="middle" fill="#111827">0.0000</text>
<rect x="772.6" y="330.0" width="13.2" height="0.0" fill="#dc2626" rx="2"/>
<text x="779.2" y="324.0" font-size="11" text-anchor="middle" fill="#111827">0.0000</text>
<rect x="791.8" y="330.0" width="13.2" height="0.0" fill="#16a34a" rx="2"/>
<text x="798.3" y="324.0" font-size="11" text-anchor="middle" fill="#111827">0.0000</text>
<rect x="810.9" y="231.2" width="13.2" height="98.8" fill="#9333ea" rx="2"/>
<text x="817.5" y="225.2" font-size="11" text-anchor="middle" fill="#111827">0.0302</text>
<text x="901.2" y="390" font-size="12" text-anchor="middle" fill="#374151">No Shared Info</text>
<rect x="862.9" y="330.0" width="13.2" height="0.0" fill="#2563eb" rx="2"/>
<text x="869.5" y="324.0" font-size="11" text-anchor="middle" fill="#111827">0.0000</text>
<rect x="882.1" y="330.0" width="13.2" height="0.0" fill="#dc2626" rx="2"/>
<text x="888.7" y="324.0" font-size="11" text-anchor="middle" fill="#111827">0.0000</text>
<rect x="901.2" y="330.0" width="13.2" height="0.0" fill="#16a34a" rx="2"/>
<text x="907.8" y="324.0" font-size="11" text-anchor="middle" fill="#111827">0.0000</text>
<rect x="920.4" y="204.4" width="13.2" height="125.6" fill="#9333ea" rx="2"/>
<text x="927.0" y="198.4" font-size="11" text-anchor="middle" fill="#111827">0.0384</text>
<rect x="80" y="364" width="14" height="14" fill="#2563eb" rx="2"/>
<text x="102" y="376" font-size="12" fill="#374151">Safety Coverage</text>
<rect x="260" y="364" width="14" height="14" fill="#dc2626" rx="2"/>
<text x="282" y="376" font-size="12" fill="#374151">Mission Utility</text>
<rect x="440" y="364" width="14" height="14" fill="#16a34a" rx="2"/>
<text x="462" y="376" font-size="12" fill="#374151">Energy Headroom</text>
<rect x="620" y="364" width="14" height="14" fill="#9333ea" rx="2"/>
<text x="642" y="376" font-size="12" fill="#374151">Decision Time</text>
</svg>