<svg xmlns="http://www.w3.org/2000/svg" width="980" height="420" viewBox="0 0 980 420">
<rect width="100%" height="100%" fill="#ffffff"/>
<text x="490.0" y="28" font-size="20" text-anchor="middle" fill="#111827">Energy Headroom by Scenario</text>
<text x="20" y="210.0" font-size="14" transform="rotate(-90 20 210.0)" fill="#374151">Energy Headroom</text>
<line x1="80" y1="330.0" x2="956" y2="330.0" stroke="#e5e7eb" stroke-width="1"/>
<text x="70" y="334.0" font-size="12" text-anchor="end" fill="#6b7280">0</text>
<line x1="80" y1="275.2" x2="956" y2="275.2" stroke="#e5e7eb" stroke-width="1"/>
<text x="70" y="279.2" font-size="12" text-anchor="end" fill="#6b7280">20</text>
<line x1="80" y1="220.4" x2="956" y2="220.4" stroke="#e5e7eb" stroke-width="1"/>
<text x="70" y="224.4" font-size="12" text-anchor="end" fill="#6b7280">40</text>
<line x1="80" y1="165.6" x2="956" y2="165.6" stroke="#e5e7eb" stroke-width="1"/>
<text x="70" y="169.6" font-size="12" text-anchor="end" fill="#6b7280">60</text>
<line x1="80" y1="110.8" x2="956" y2="110.8" stroke="#e5e7eb" stroke-width="1"/>
<text x="70" y="114.8" font-size="12" text-anchor="end" fill="#6b7280">80</text>
<line x1="80" y1="56.0" x2="956" y2="56.0" stroke="#e5e7eb" stroke-width="1"/>
<text x="70" y="60.0" font-size="12" text-anchor="end" fill="#6b7280">100</text>
<text x="101.9" y="390" font-size="12" text-anchor="middle" fill="#374151">Actuator Degradation #002</text>
<rect x="86.6" y="330.0" width="1.7" height="0.0" fill="#2563eb" rx="2"/>
<text x="87.4" y="324.0" font-size="11" text-anchor="middle" fill="#111827">0.0</text>
<rect x="94.2" y="330.0" width="1.7" height="0.0" fill="#dc2626" rx="2"/>
<text x="95.1" y="324.0" font-size="11" text-anchor="middle" fill="#111827">0.0</text>
<rect x="101.9" y="330.0" width="1.7" height="0.0" fill="#16a34a" rx="2"/>
<text x="102.7" y="324.0" font-size="11" text-anchor="middle" fill="#111827">0.0</text>
<rect x="109.6" y="330.0" width="1.7" height="0.0" fill="#9333ea" rx="2"/>
<text x="110.4" y="324.0" font-size="11" text-anchor="middle" fill="#111827">0.0</text>
<text x="145.7" y="390" font-size="12" text-anchor="middle" fill="#374151">Budget Exhaustion #005</text>
<rect x="130.4" y="330.0" width="1.7" height="0.0" fill="#2563eb" rx="2"/>
<text x="131.2" y="324.0" font-size="11" text-anchor="middle" fill="#111827">0.0</text>
<rect x="138.0" y="330.0" width="1.7" height="0.0" fill="#dc2626" rx="2"/>
<text x="138.9" y="324.0" font-size="11" text-anchor="middle" fill="#111827">0.0</text>
<rect x="145.7" y="330.0" width="1.7" height="0.0" fill="#16a34a" rx="2"/>
<text x="146.5" y="324.0" font-size="11" text-anchor="middle" fill="#111827">0.0</text>
<rect x="153.4" y="330.0" width="1.7" height="0.0" fill="#9333ea" rx="2"/>
<text x="154.2" y="324.0" font-size="11" text-anchor="middle" fill="#111827">0.0</text>
<text x="189.5" y="390" font-size="12" text-anchor="middle" fill="#374151">Communication Loss #009</text>
<rect x="174.2" y="330.0" width="1.7" height="0.0" fill="#2563eb" rx="2"/>
<text x="175.0" y="324.0" font-size="11" text-anchor="middle" fill="#111827">0.0</text>
<rect x="181.8" y="330.0" width="1.7" height="0.0" fill="#dc2626" rx="2"/>
<text x="182.7" y="324.0" font-size="11" text-anchor="middle" fill="#111827">0.0</text>
<rect x="189.5" y="330.0" width="1.7" height="0.0" fill="#16a34a" rx="2"/>
<text x="190.3" y="324.0" font-size="11" text-anchor="middle" fill="#111827">0.0</text>
<rect x="197.2" y="330.0" width="1.7" height="0.0" fill="#9333ea" rx="2"/>
<text x="198.0" y="324.0" font-size="11" text-anchor="middle" fill="#111827">0.0</text>
<text x="233.3" y="390" font-size="12" text-anchor="middle" fill="#374151">Communication Loss #011</text>
<rect x="218.0" y="330.0" width="1.7" height="0.0" fill="#2563eb" rx="2"/>
<text x="218.8" y="324.0" font-size="11" text-anchor="middle" fill="#111827">0.0</text>
<rect x="225.6" y="330.0" width="1.7" height="0.0" fill="#dc2626" rx="2"/>
<text x="226.5" y="324.0" font-size="11" text-anchor="middle" fill="#111827">0.0</text>
<rect x="233.3" y="330.0" width="1.7" height="0.0" fill="#16a34a" rx="2"/>
<text x="234.1" y="324.0" font-size="11" text-anchor="middle" fill="#111827">0.0</text>
<rect x="241.0" y="330.0" width="1.7" height="0.0" fill="#9333ea" rx="2"/>
<text x="241.8" y="324.0" font-size="11" text-anchor="middle" fill="#111827">0.0</text>
<text x="277.1" y="390" font-size="12" text-anchor="middle" fill="#374151">Deadline Overload #007</text>
<rect x="261.8" y="330.0" width="1.7" height="0.0" fill="#2563eb" rx="2"/>
<text x="262.6" y="324.0" font-size="11" text-anchor="middle" fill="#111827">0.0</text>
<rect x="269.4" y="330.0" width="1.7" height="0.0" fill="#dc2626" rx="2"/>
<text x="270.3" y="324.0" font-size="11" text-anchor="middle" fill="#111827">0.0</text>
<rect x="277.1" y="330.0" width="1.7" height="0.0" fill="#16a34a" rx="2"/>
<text x="277.9" y="324.0" font-size="11" text-anchor="middle" fill="#111827">0.0</text>
<rect x="284.8" y="330.0" width="1.7" height="0.0" fill="#9333ea" rx="2"/>
<text x="285.6" y="324.0" font-size="11" text-anchor="middle" fill="#111827">0.0</text>
<text x="320.9" y="390" font-size="12" text-anchor="middle" fill="#374151">Emergency Event #001</text>
<rect x="305.6" y="330.0" width="1.7" height="0.0" fill="#2563eb" rx="2"/>
<text x="306.4" y="324.0" font-size="11" text-anchor="middle" fill="#111827">0.0</text>
<rect x="313.2" y="330.0" width="1.7" height="0.0" fill="#dc2626" rx="2"/>
<text x="314.1" y="324.0" font-size="11" text-anchor="middle" fill="#111827">0.0</text>
<rect x="320.9" y="330.0" width="1.7" height="0.0" fill="#16a34a" rx="2"/>
<text x="321.7" y="324.0" font-size="11" text-anchor="middle" fill="#111827">0.0</text>
<rect x="328.6" y="330.0" width="1.7" height="0.0" fill="#9333ea" rx="2"/>
<text x="329.4" y="324.0" font-size="11" text-anchor="middle" fill="#111827">0.0</text>
<text x="364.7" y="390" font-size="12" text-anchor="middle" fill="#374151">GPS Drift #019</text>
<rect x="349.4" y="330.0" width="1.7" height="0.0" fill="#2563eb" rx="2"/>
<text x="350.2" y="324.0" font-size="11" text-anchor="middle" fill="#111827">0.0</text>
<rect x="357.0" y="330.0" width="1.7" height="0.0" fill="#dc2626" rx="2"/>
<text x="357.9" y="324.0" font-size="11" text-anchor="middle" fill="#111827">0.0</text>
<rect x="364.7" y="330.0" width="1.7" height="0.0" fill="#16a34a" rx="2"/>
<text x="365.5" y="324.0" font-size="11" text-anchor="middle" fill="#111827">0.0</text>
<rect x="372.4" y="330.0" width="1.7" height="0.0" fill="#9333ea" rx="2"/>
<text x="373.2" y="324.0" font-size="11" text-anchor="middle" fill="#111827">0.0</text>
<text x="408.5" y="390" font-size="12" text-anchor="middle" fill="#374151">High Temperature #008</text>
<rect x="393.2" y="330.0" width="1.7" height="0.0" fill="#2563eb" rx="2"/>
<text x="394.0" y="324.0" font-size="11" text-anchor="middle" fill="#111827">0.0</text>
<rect x="400.8" y="330.0" width="1.7" height="0.0" fill="#dc2626" rx="2"/>
<text x="401.7" y="324.0" font-size="11" text-anchor="middle" fill="#111827">0.0</text>
<rect x="408.5" y="330.0" width="1.7" height="0.0" fill="#16a34a" rx="2"/>
<text x="409.3" y="324.0" font-size="11" text-anchor="middle" fill="#111827">0.0</text>
<rect x="416.2" y="330.0" width="1.7" height="0.0" fill="#9333ea" rx="2"/>
<text x="417.0" y="324.0" font-size="11" text-anchor="middle" fill="#111827">0.0</text>
<text x="452.3" y="390" font-size="12" text-anchor="middle" fill="#374151">LIDAR Failure #006</text>
<rect x="437.0" y="330.0" width="1.7" height="0.0" fill="#2563eb" rx="2"/>
<text x="437.8" y="324.0" font-size="11" text-anchor="middle" fill="#111827">0.0</text>
<rect x="444.6" y="330.0" width="1.7" height="0.0" fill="#dc2626" rx="2"/>
<text x="445.5" y="324.0" font-size="11" text-anchor="middle" fill="#111827">0.0</text>
<rect x="452.3" y="330.0" width="1.7" height="0.0" fill="#16a34a" rx="2"/>
<text x="453.1" y="324.0" font-size="11" text-anchor="middle" fill="#111827">0.0</text>
<rect x="460.0" y="330.0" width="1.7" height="0.0" fill="#9333ea" rx="2"/>
<text x="460.8" y="324.0" font-size="11" text-anchor="middle" fill="#111827">0.0</text>
<text x="496.1" y="390" font-size="12" text-anchor="middle" fill="#374151">Low Battery #012</text>
<rect x="480.8" y="330.0" width="1.7" height="0.0" fill="#2563eb" rx="2"/>
<text x="481.6" y="324.0" font-size="11" text-anchor="middle" fill="#111827">0.0</text>
<rect x="488.4" y="330.0" width="1.7" height="0.0" fill="#dc2626" rx="2"/>
<text x="489.3" y="324.0" font-size="11" text-anchor="middle" fill="#111827">0.0</text>
<rect x="496.1" y="330.0" width="1.7" height="0.0" fill="#16a34a" rx="2"/>
<text x="496.9" y="324.0" font-size="11" text-anchor="middle" fill="#111827">0.0</text>
<rect x="503.8" y="330.0" width="1.7" height="0.0" fill="#9333ea" rx="2"/>
<text x="504.6" y="324.0" font-size="11" text-anchor="middle" fill="#111827">0.0</text>
<text x="539.9" y="390" font-size="12" text-anchor="middle" fill="#374151">Memory Pressure #015</text>
<rect x="524.6" y="330.0" width="1.7" height="0.0" fill="#2563eb" rx="2"/>
<text x="525.4" y="324.0" font-size="11" text-anchor="middle" fill="#111827">0.0</text>
<rect x="532.2" y="330.0" width="1.7" height="0.0" fill="#dc2626" rx="2"/>
<text x="533.1" y="324.0" font-size="11" text-anchor="middle" fill="#111827">0.0</text>
<rect x="539.9" y="330.0" width="1.7" height="0.0" fill="#16a34a" rx="2"/>
<text x="540.7" y="324.0" font-size="11" text-anchor="middle" fill="#111827">0.0</text>
<rect x="547.6" y="330.0" width="1.7" height="0.0" fill="#9333ea" rx="2"/>
<text x="548.4" y="324.0" font-size="11" text-anchor="middle" fill="#111827">0.0</text>
<text x="583.7" y="390" font-size="12" text-anchor="middle" fill="#374151">Mission Change #013</text>
<rect x="568.4" y="330.0" width="1.7" height="0.0" fill="#2563eb" rx="2"/>
<text x="569.2" y="324.0" font-size="11" text-anchor="middle" fill="#111827">0.0</text>
<rect x="576.0" y="330.0" width="1.7" height="0.0" fill="#dc2626" rx="2"/>
<text x="576.9" y="324.0" font-size="11" text-anchor="middle" fill="#111827">0.0</text>
<rect x="583.7" y="330.0" width="1.7" height="0.0" fill="#16a34a" rx="2"/>
<text x="584.5" y="324.0" font-size="11" text-anchor="middle" fill="#111827">0.0</text>
<rect x="591.4" y="330.0" width="1.7" height="0.0" fill="#9333ea" rx="2"/>
<text x="592.2" y="324.0" font-size="11" text-anchor="middle" fill="#111827">0.0</text>
<text x="627.5" y="390" font-size="12" text-anchor="middle" fill="#374151">Multi-Sensor Failure #014</text>
<rect x="612.2" y="330.0" width="1.7" height="0.0" fill="#2563eb" rx="2"/>
<text x="613.0" y="324.0" font-size="11" text-anchor="middle" fill="#111827">0.0</text>
<rect x="619.8" y="330.0" width="1.7" height="0.0" fill="#dc2626" rx="2"/>
<text x="620.7" y="324.0" font-size="11" text-anchor="middle" fill="#111827">0.0</text>
<rect x="627.5" y="330.0" width="1.7" height="0.0" fill="#16a34a" rx="2"/>
<text x="628.3" y="324.0" font-size="11" text-anchor="middle" fill="#111827">0.0</text>
<rect x="635.2" y="330.0" width="1.7" height="0.0" fill="#9333ea" rx="2"/>
<text x="636.0" y="324.0" font-size="11" text-anchor="middle" fill="#111827">0.0</text>
<text x="671.3" y="390" font-size="12" text-anchor="middle" fill="#374151">Navigation Loss #004</text>
<rect x="656.0" y="330.0" width="1.7" height="0.0" fill="#2563eb" rx="2"/>
<text x="656.8" y="324.0" font-size="11" text-anchor="middle" fill="#111827">0.0</text>
<rect x="663.6" y="330.0" width="1.7" height="0.0" fill="#dc2626" rx="2"/>
<text x="664.5" y="324.0" font-size="11" text-anchor="middle" fill="#111827">0.0</text>
<rect x="671.3" y="330.0" width="1.7" height="0.0" fill="#16a34a" rx="2"/>
<text x="672.1" y="324.0" font-size="11" text-anchor="middle" fill="#111827">0.0</text>
<rect x="679.0" y="330.0" width="1.7" height="0.0" fill="#9333ea" rx="2"/>
<text x="679.8" y="324.0" font-size="11" text-anchor="middle" fill="#111827">0.0</text>
<text x="715.1" y="390" font-size="12" text-anchor="middle" fill="#374151">Navigation Loss #010</text>
<rect x="699.8" y="330.0" width="1.7" height="0.0" fill="#2563eb" rx="2"/>
<text x="700.6" y="324.0" font-size="11" text-anchor="middle" fill="#111827">0.0</text>
<rect x="707.4" y="330.0" width="1.7" height="0.0" fill="#dc2626" rx="2"/>
<text x="708.3" y="324.0" font-size="11" text-anchor="middle" fill="#111827">0.0</text>
<rect x="715.1" y="330.0" width="1.7" height="0.0" fill="#16a34a" rx="2"/>
<text x="715.9" y="324.0" font-size="11" text-anchor="middle" fill="#111827">0.0</text>
<rect x="722.8" y="330.0" width="1.7" height="0.0" fill="#9333ea" rx="2"/>
<text x="723.6" y="324.0" font-size="11" text-anchor="middle" fill="#111827">0.0</text>
<text x="758.9" y="390" font-size="12" text-anchor="middle" fill="#374151">Navigation Loss #020</text>
<rect x="743.6" y="330.0" width="1.7" height="0.0" fill="#2563eb" rx="2"/>
<text x="744.4" y="324.0" font-size="11" text-anchor="middle" fill="#111827">0.0</text>
<rect x="751.2" y="330.0" width="1.7" height="0.0" fill="#dc2626" rx="2"/>
<text x="752.1" y="324.0" font-size="11" text-anchor="middle" fill="#111827">0.0</text>
<rect x="758.9" y="330.0" width="1.7" height="0.0" fill="#16a34a" rx="2"/>
<text x="759.7" y="324.0" font-size="11" text-anchor="middle" fill="#111827">0.0</text>
<rect x="766.6" y="330.0" width="1.7" height="0.0" fill="#9333ea" rx="2"/>
<text x="767.4" y="324.0" font-size="11" text-anchor="middle" fill="#111827">0.0</text>
<text x="802.7" y="390" font-size="12" text-anchor="middle" fill="#374151">Nominal Exploration #003</text>
<rect x="787.4" y="330.0" width="1.7" height="0.0" fill="#2563eb" rx="2"/>
<text x="788.2" y="324.0" font-size="11" text-anchor="middle" fill="#111827">0.0</text>
<rect x="795.0" y="330.0" width="1.7" height="0.0" fill="#dc2626" rx="2"/>
<text x="795.9" y="324.0" font-size="11" text-anchor="middle" fill="#111827">0.0</text>
<rect x="802.7" y="330.0" width="1.7" height="0.0" fill="#16a34a" rx="2"/>
<text x="803.5" y="324.0" font-size="11" text-anchor="middle" fill="#111827">0.0</text>
<rect x="810.4" y="330.0" width="1.7" height="0.0" fill="#9333ea" rx="2"/>
<text x="811.2" y="324.0" font-size="11" text-anchor="middle" fill="#111827">0.0</text>
<text x="846.5" y="390" font-size="12" text-anchor="middle" fill="#374151">Nominal Exploration #018</text>
<rect x="831.2" y="330.0" width="1.7" height="0.0" fill="#2563eb" rx="2"/>
<text x="832.0" y="324.0" font-size="11" text-anchor="middle" fill="#111827">0.0</text>
<rect x="838.8" y="330.0" width="1.7" height="0.0" fill="#dc2626" rx="2"/>
<text x="839.7" y="324.0" font-size="11" text-anchor="middle" fill="#111827">0.0</text>
<rect x="846.5" y="330.0" width="1.7" height="0.0" fill="#16a34a" rx="2"/>
<text x="847.3" y="324.0" font-size="11" text-anchor="middle" fill="#111827">0.0</text>
<rect x="854.2" y="330.0" width="1.7" height="0.0" fill="#9333ea" rx="2"/>
<text x="855.0" y="324.0" font-size="11" text-anchor="middle" fill="#111827">0.0</text>
<text x="890.3" y="390" font-size="12" text-anchor="middle" fill="#374151">Obstacle Detected #016</text>
<rect x="875.0" y="330.0" width="1.7" height="0.0" fill="#2563eb" rx="2"/>
<text x="875.8" y="324.0" font-size="11" text-anchor="middle" fill="#111827">0.0</text>
<rect x="882.6" y="330.0" width="1.7" height="0.0" fill="#dc2626" rx="2"/>
<text x="883.5" y="324.0" font-size="11" text-anchor="middle" fill="#111827">0.0</text>
<rect x="890.3" y="330.0" width="1.7" height="0.0" fill="#16a34a" rx="2"/>
<text x="891.1" y="324.0" font-size="11" text-anchor="middle" fill="#111827">0.0</text>
<rect x="898.0" y="330.0" width="1.7" height="0.0" fill="#9333ea" rx="2"/>
<text x="898.8" y="324.0" font-size="11" text-anchor="middle" fill="#111827">0.0</text>
<text x="934.1" y="390" font-size="12" text-anchor="middle" fill="#374151">Unknown Environment #017</text>
<rect x="918.8" y="330.0" width="1.7" height="0.0" fill="#2563eb" rx="2"/>
<text x="919.6" y="324.0" font-size="11" text-anchor="middle" fill="#111827">0.0</text>
<rect x="926.4" y="330.0" width="1.7" height="0.0" fill="#dc2626" rx="2"/>
<text x="927.3" y="324.0" font-size="11" text-anchor="middle" fill="#111827">0.0</text>
<rect x="934.1" y="330.0" width="1.7" height="0.0" fill="#16a34a" rx="2"/>
<text x="934.9" y="324.0" font-size="11" text-anchor="middle" fill="#111827">0.0</text>
<rect x="941.8" y="330.0" width="1.7" height="0.0" fill="#9333ea" rx="2"/>
<text x="942.6" y="324.0" font-size="11" text-anchor="middle" fill="#111827">0.0</text>
<rect x="80" y="364" width="14" height="14" fill="#2563eb" rx="2"/>
<text x="102" y="376" font-size="12" fill="#374151">Criticality</text>
<rect x="260" y="364" width="14" height="14" fill="#dc2626" rx="2"/>
<text x="282" y="376" font-size="12" fill="#374151">Lexicographic</text>
<rect x="440" y="364" width="14" height="14" fill="#16a34a" rx="2"/>
<text x="462" y="376" font-size="12" fill="#374151">Priority</text>
<rect x="620" y="364" width="14" height="14" fill="#9333ea" rx="2"/>
<text x="642" y="376" font-size="12" fill="#374151">Risk Aware Knapsack</text>
</svg>