<svg xmlns="http://www.w3.org/2000/svg" width="600" height="600" viewBox="0 0 600 600">
<rect width="100%" height="100%" fill="#ffffff"/>
<text x="300.0" y="30" font-size="20" text-anchor="middle" fill="#111827">Mission Utility Across Scenarios</text>
<polygon points="300.0,252.0 314.8,254.3 328.2,261.2 338.8,271.8 345.7,285.2 348.0,300.0 345.7,314.8 338.8,328.2 328.2,338.8 314.8,345.7 300.0,348.0 285.2,345.7 271.8,338.8 261.2,328.2 254.3,314.8 252.0,300.0 254.3,285.2 261.2,271.8 271.8,261.2 285.2,254.3" fill="none" stroke="#e5e7eb" stroke-width="1"/>
<text x="300.0" y="247.0" font-size="10" text-anchor="middle" fill="#6b7280">20%</text>
<polygon points="300.0,204.0 329.7,208.7 356.4,222.3 377.7,243.6 391.3,270.3 396.0,300.0 391.3,329.7 377.7,356.4 356.4,377.7 329.7,391.3 300.0,396.0 270.3,391.3 243.6,377.7 222.3,356.4 208.7,329.7 204.0,300.0 208.7,270.3 222.3,243.6 243.6,222.3 270.3,208.7" fill="none" stroke="#e5e7eb" stroke-width="1"/>
<text x="300.0" y="199.0" font-size="10" text-anchor="middle" fill="#6b7280">40%</text>
<polygon points="300.0,156.0 344.5,163.0 384.6,183.5 416.5,215.4 437.0,255.5 444.0,300.0 437.0,344.5 416.5,384.6 384.6,416.5 344.5,437.0 300.0,444.0 255.5,437.0 215.4,416.5 183.5,384.6 163.0,344.5 156.0,300.0 163.0,255.5 183.5,215.4 215.4,183.5 255.5,163.0" fill="none" stroke="#e5e7eb" stroke-width="1"/>
<text x="300.0" y="151.0" font-size="10" text-anchor="middle" fill="#6b7280">60%</text>
<polygon points="300.0,108.0 359.3,117.4 412.9,144.7 455.3,187.1 482.6,240.7 492.0,300.0 482.6,359.3 455.3,412.9 412.9,455.3 359.3,482.6 300.0,492.0 240.7,482.6 187.1,455.3 144.7,412.9 117.4,359.3 108.0,300.0 117.4,240.7 144.7,187.1 187.1,144.7 240.7,117.4" fill="none" stroke="#e5e7eb" stroke-width="1"/>
<text x="300.0" y="103.0" font-size="10" text-anchor="middle" fill="#6b7280">80%</text>
<polygon points="300.0,60.0 374.2,71.7 441.1,105.8 494.2,158.9 528.3,225.8 540.0,300.0 528.3,374.2 494.2,441.1 441.1,494.2 374.2,528.3 300.0,540.0 225.8,528.3 158.9,494.2 105.8,441.1 71.7,374.2 60.0,300.0 71.7,225.8 105.8,158.9 158.9,105.8 225.8,71.7" fill="none" stroke="#e5e7eb" stroke-width="1"/>
<text x="300.0" y="55.0" font-size="10" text-anchor="middle" fill="#6b7280">100%</text>
<line x1="300.0" y1="300.0" x2="300.0" y2="60.0" stroke="#e5e7eb" stroke-width="1"/>
<text x="300.0" y="45.0" font-size="11" text-anchor="middle" fill="#374151">Actuator Degradation #002</text>
<line x1="300.0" y1="300.0" x2="374.2" y2="71.7" stroke="#e5e7eb" stroke-width="1"/>
<text x="380.3" y="57.7" font-size="11" text-anchor="middle" fill="#374151">Budget Exhaustion #005</text>
<line x1="300.0" y1="300.0" x2="441.1" y2="105.8" stroke="#e5e7eb" stroke-width="1"/>
<text x="452.8" y="94.7" font-size="11" text-anchor="middle" fill="#374151">Communication Loss #009</text>
<line x1="300.0" y1="300.0" x2="494.2" y2="158.9" stroke="#e5e7eb" stroke-width="1"/>
<text x="510.3" y="152.2" font-size="11" text-anchor="middle" fill="#374151">Communication Loss #011</text>
<line x1="300.0" y1="300.0" x2="528.3" y2="225.8" stroke="#e5e7eb" stroke-width="1"/>
<text x="547.3" y="224.7" font-size="11" text-anchor="middle" fill="#374151">Deadline Overload #007</text>
<line x1="300.0" y1="300.0" x2="540.0" y2="300.0" stroke="#e5e7eb" stroke-width="1"/>
<text x="560.0" y="305.0" font-size="11" text-anchor="middle" fill="#374151">Emergency Event #001</text>
<line x1="300.0" y1="300.0" x2="528.3" y2="374.2" stroke="#e5e7eb" stroke-width="1"/>
<text x="547.3" y="385.3" font-size="11" text-anchor="middle" fill="#374151">GPS Drift #019</text>
<line x1="300.0" y1="300.0" x2="494.2" y2="441.1" stroke="#e5e7eb" stroke-width="1"/>
<text x="510.3" y="457.8" font-size="11" text-anchor="middle" fill="#374151">High Temperature #008</text>
<line x1="300.0" y1="300.0" x2="441.1" y2="494.2" stroke="#e5e7eb" stroke-width="1"/>
<text x="452.8" y="515.3" font-size="11" text-anchor="middle" fill="#374151">LIDAR Failure #006</text>
<line x1="300.0" y1="300.0" x2="374.2" y2="528.3" stroke="#e5e7eb" stroke-width="1"/>
<text x="380.3" y="552.3" font-size="11" text-anchor="middle" fill="#374151">Low Battery #012</text>
<line x1="300.0" y1="300.0" x2="300.0" y2="540.0" stroke="#e5e7eb" stroke-width="1"/>
<text x="300.0" y="565.0" font-size="11" text-anchor="middle" fill="#374151">Memory Pressure #015</text>
<line x1="300.0" y1="300.0" x2="225.8" y2="528.3" stroke="#e5e7eb" stroke-width="1"/>
<text x="219.7" y="552.3" font-size="11" text-anchor="middle" fill="#374151">Mission Change #013</text>
<line x1="300.0" y1="300.0" x2="158.9" y2="494.2" stroke="#e5e7eb" stroke-width="1"/>
<text x="147.2" y="515.3" font-size="11" text-anchor="middle" fill="#374151">Multi-Sensor Failure #014</text>
<line x1="300.0" y1="300.0" x2="105.8" y2="441.1" stroke="#e5e7eb" stroke-width="1"/>
<text x="89.7" y="457.8" font-size="11" text-anchor="middle" fill="#374151">Navigation Loss #004</text>
<line x1="300.0" y1="300.0" x2="71.7" y2="374.2" stroke="#e5e7eb" stroke-width="1"/>
<text x="52.7" y="385.3" font-size="11" text-anchor="middle" fill="#374151">Navigation Loss #010</text>
<line x1="300.0" y1="300.0" x2="60.0" y2="300.0" stroke="#e5e7eb" stroke-width="1"/>
<text x="40.0" y="305.0" font-size="11" text-anchor="middle" fill="#374151">Navigation Loss #020</text>
<line x1="300.0" y1="300.0" x2="71.7" y2="225.8" stroke="#e5e7eb" stroke-width="1"/>
<text x="52.7" y="224.7" font-size="11" text-anchor="middle" fill="#374151">Nominal Exploration #003</text>
<line x1="300.0" y1="300.0" x2="105.8" y2="158.9" stroke="#e5e7eb" stroke-width="1"/>
<text x="89.7" y="152.2" font-size="11" text-anchor="middle" fill="#374151">Nominal Exploration #018</text>
<line x1="300.0" y1="300.0" x2="158.9" y2="105.8" stroke="#e5e7eb" stroke-width="1"/>
<text x="147.2" y="94.7" font-size="11" text-anchor="middle" fill="#374151">Obstacle Detected #016</text>
<line x1="300.0" y1="300.0" x2="225.8" y2="71.7" stroke="#e5e7eb" stroke-width="1"/>
<text x="219.7" y="57.7" font-size="11" text-anchor="middle" fill="#374151">Unknown Environment #017</text>
<polygon points="300.0,300.0 300.0,300.0 314.8,279.6 340.9,270.3 324.0,292.2 394.7,300.0 372.1,323.4 300.0,300.0 314.8,320.4 307.8,324.0 300.0,325.3 276.6,372.1 274.0,335.8 279.6,314.8 276.0,307.8 274.7,300.0 227.9,276.6 223.4,244.3 285.2,279.6 292.2,276.0" fill="#2563eb33" stroke="#2563eb" stroke-width="2"/>
<text x="320.0" y="320.0" font-size="12" fill="#2563eb">Criticality</text>
<polygon points="300.0,230.5 321.5,233.9 340.8,243.8 397.1,229.5 366.1,278.5 420.0,300.0 414.1,337.1 356.2,340.8 340.8,356.2 321.5,366.1 300.0,369.5 262.9,414.1 259.2,356.2 243.8,340.8 233.9,321.5 230.5,300.0 185.9,262.9 197.8,225.8 259.2,243.8 278.5,233.9" fill="#dc262633" stroke="#dc2626" stroke-width="2"/>
<text x="320.0" y="340.0" font-size="12" fill="#dc2626">Lexicographic</text>
<polygon points="300.0,60.0 374.2,71.7 441.1,105.8 494.2,158.9 528.3,225.8 540.0,300.0 528.3,374.2 494.2,441.1 441.1,494.2 374.2,528.3 300.0,540.0 225.8,528.3 158.9,494.2 105.8,441.1 71.7,374.2 60.0,300.0 71.7,225.8 105.8,158.9 158.9,105.8 225.8,71.7" fill="#16a34a33" stroke="#16a34a" stroke-width="2"/>
<text x="320.0" y="360.0" font-size="12" fill="#16a34a">Priority</text>
<polygon points="300.0,300.0 300.0,300.0 314.8,279.6 340.9,270.3 324.0,292.2 394.7,300.0 372.1,323.4 300.0,300.0 314.8,320.4 307.8,324.0 300.0,325.3 276.6,372.1 300.0,300.0 279.6,314.8 276.0,307.8 274.7,300.0 227.9,276.6 223.4,244.3 285.2,279.6 292.2,276.0" fill="#9333ea33" stroke="#9333ea" stroke-width="2"/>
<text x="320.0" y="380.0" font-size="12" fill="#9333ea">Risk Aware Knapsack</text>
</svg>